HIERARCHY
ROOT mixamorig:Hips
{
	OFFSET 0.000000 201.639420 0.000000
	CHANNELS 6 Xposition Yposition Zposition Xrotation Yrotation Zrotation
	JOINT mixamorig:Spine
	{
		OFFSET 0.006200 19.524994 -2.481800
		CHANNELS 3 Xrotation Yrotation Zrotation
		JOINT mixamorig:Spine1
		{
			OFFSET -0.000900 22.835007 -2.825400
			CHANNELS 3 Xrotation Yrotation Zrotation
			JOINT mixamorig:Spine2
			{
				OFFSET -0.020600 26.552490 -3.193300
				CHANNELS 3 Xrotation Yrotation Zrotation
				JOINT mixamorig:Neck
				{
					OFFSET -0.060000 30.701813 1.352200
					CHANNELS 3 Xrotation Yrotation Zrotation
					JOINT mixamorig:Head
					{
						OFFSET -0.087200 22.547607 3.670900
						CHANNELS 3 Xrotation Yrotation Zrotation
						JOINT mixamorig:HeadTop_End
						{
							OFFSET -0.830600 40.355194 7.893500
							CHANNELS 3 Xrotation Yrotation Zrotation
							End Site
							{
								OFFSET 0.000000 30.592346 0.000000
							}
						}
						JOINT mixamorig:RightEye
						{
							OFFSET -6.302100 18.118591 16.197100
							CHANNELS 3 Xrotation Yrotation Zrotation
							End Site
							{
								OFFSET 0.000000 30.592346 0.000000
							}
						}
						JOINT mixamorig:LeftEye
						{
							OFFSET 6.741500 18.382690 16.401899
							CHANNELS 3 Xrotation Yrotation Zrotation
							End Site
							{
								OFFSET 0.000000 30.592346 0.000000
							}
						}
					}
				}
				JOINT mixamorig:LeftShoulder
				{
					OFFSET 11.924900 18.230499 1.425400
					CHANNELS 3 Xrotation Yrotation Zrotation
					JOINT mixamorig:LeftArm
					{
						OFFSET 25.435989 -0.697632 -5.229300
						CHANNELS 3 Xrotation Yrotation Zrotation
						JOINT mixamorig:LeftForeArm
						{
							OFFSET 54.684776 0.000000 0.000000
							CHANNELS 3 Xrotation Yrotation Zrotation
							JOINT mixamorig:LeftHand
							{
								OFFSET 55.098175 0.000000 0.000000
								CHANNELS 3 Xrotation Yrotation Zrotation
								JOINT mixamorig:LeftHandMiddle1
								{
									OFFSET 23.369751 0.000000 0.000000
									CHANNELS 3 Xrotation Yrotation Zrotation
									JOINT mixamorig:LeftHandMiddle2
									{
										OFFSET 6.378677 0.000000 0.000000
										CHANNELS 3 Xrotation Yrotation Zrotation
										JOINT mixamorig:LeftHandMiddle3
										{
											OFFSET 6.148331 0.000000 0.000000
											CHANNELS 3 Xrotation Yrotation Zrotation
											JOINT mixamorig:LeftHandMiddle4
											{
												OFFSET 6.582504 0.000000 0.000000
												CHANNELS 3 Xrotation Yrotation Zrotation
												End Site
												{
													OFFSET -1.168900 6.395691 1.028606
												}
											}
										}
									}
								}
								JOINT mixamorig:LeftHandThumb1
								{
									OFFSET 7.235672 -3.848206 5.434273
									CHANNELS 3 Xrotation Yrotation Zrotation
									JOINT mixamorig:LeftHandThumb2
									{
										OFFSET 6.568451 -3.792297 3.792300
										CHANNELS 3 Xrotation Yrotation Zrotation
										JOINT mixamorig:LeftHandThumb3
										{
											OFFSET 6.063080 -3.500519 3.500518
											CHANNELS 3 Xrotation Yrotation Zrotation
											JOINT mixamorig:LeftHandThumb4
											{
												OFFSET 4.793182 -2.767334 2.767349
												CHANNELS 3 Xrotation Yrotation Zrotation
												End Site
												{
													OFFSET 0.101639 6.054260 1.275483
												}
											}
										}
									}
								}
								JOINT mixamorig:LeftHandIndex1
								{
									OFFSET 23.101074 -0.309540 4.992809
									CHANNELS 3 Xrotation Yrotation Zrotation
									JOINT mixamorig:LeftHandIndex2
									{
										OFFSET 6.226883 0.000000 0.000000
										CHANNELS 3 Xrotation Yrotation Zrotation
										JOINT mixamorig:LeftHandIndex3
										{
											OFFSET 6.094330 0.000000 0.000000
											CHANNELS 3 Xrotation Yrotation Zrotation
											JOINT mixamorig:LeftHandIndex4
											{
												OFFSET 5.482605 0.000000 0.000000
												CHANNELS 3 Xrotation Yrotation Zrotation
												End Site
												{
													OFFSET -1.427902 5.233032 0.797164
												}
											}
										}
									}
								}
								JOINT mixamorig:LeftHandRing1
								{
									OFFSET 22.299240 0.021149 -3.964172
									CHANNELS 3 Xrotation Yrotation Zrotation
									JOINT mixamorig:LeftHandRing2
									{
										OFFSET 6.321869 0.000000 0.000000
										CHANNELS 3 Xrotation Yrotation Zrotation
										JOINT mixamorig:LeftHandRing3
										{
											OFFSET 5.899796 0.000000 0.000000
											CHANNELS 3 Xrotation Yrotation Zrotation
											JOINT mixamorig:LeftHandRing4
											{
												OFFSET 6.517899 0.000000 0.000000
												CHANNELS 3 Xrotation Yrotation Zrotation
												End Site
												{
													OFFSET -1.637299 6.232208 0.980890
												}
											}
										}
									}
								}
								JOINT mixamorig:LeftHandPinky1
								{
									OFFSET 20.463791 -0.302338 -8.562233
									CHANNELS 3 Xrotation Yrotation Zrotation
									JOINT mixamorig:LeftHandPinky2
									{
										OFFSET 6.908646 0.000000 0.000000
										CHANNELS 3 Xrotation Yrotation Zrotation
										JOINT mixamorig:LeftHandPinky3
										{
											OFFSET 4.622849 0.000000 0.000000
											CHANNELS 3 Xrotation Yrotation Zrotation
											JOINT mixamorig:LeftHandPinky4
											{
												OFFSET 5.216080 0.000000 0.000000
												CHANNELS 3 Xrotation Yrotation Zrotation
												End Site
												{
													OFFSET -0.606308 5.116241 0.814926
												}
											}
										}
									}
								}
							}
						}
					}
				}
				JOINT mixamorig:RightShoulder
				{
					OFFSET -12.001300 18.284088 1.348900
					CHANNELS 3 Xrotation Yrotation Zrotation
					JOINT mixamorig:RightArm
					{
						OFFSET -25.308500 -0.751312 -5.164599
						CHANNELS 3 Xrotation Yrotation Zrotation
						JOINT mixamorig:RightForeArm
						{
							OFFSET -54.684429 0.000000 0.000000
							CHANNELS 3 Xrotation Yrotation Zrotation
							JOINT mixamorig:RightHand
							{
								OFFSET -55.150291 0.000000 0.000000
								CHANNELS 3 Xrotation Yrotation Zrotation
								JOINT mixamorig:RightHandMiddle1
								{
									OFFSET -23.317566 0.000000 0.000000
									CHANNELS 3 Xrotation Yrotation Zrotation
									JOINT mixamorig:RightHandMiddle2
									{
										OFFSET -6.378403 0.000000 0.000000
										CHANNELS 3 Xrotation Yrotation Zrotation
										JOINT mixamorig:RightHandMiddle3
										{
											OFFSET -6.148193 0.000000 0.000000
											CHANNELS 3 Xrotation Yrotation Zrotation
											JOINT mixamorig:RightHandMiddle4
											{
												OFFSET -6.583389 0.000000 0.000000
												CHANNELS 3 Xrotation Yrotation Zrotation
												End Site
												{
													OFFSET 1.171692 6.395905 1.029786
												}
											}
										}
									}
								}
								JOINT mixamorig:RightHandThumb1
								{
									OFFSET -7.190521 -3.860474 5.435846
									CHANNELS 3 Xrotation Yrotation Zrotation
									JOINT mixamorig:RightHandThumb2
									{
										OFFSET -6.567429 -3.791718 3.791708
										CHANNELS 3 Xrotation Yrotation Zrotation
										JOINT mixamorig:RightHandThumb3
										{
											OFFSET -6.062469 -3.500153 3.500166
											CHANNELS 3 Xrotation Yrotation Zrotation
											JOINT mixamorig:RightHandThumb4
											{
												OFFSET -4.792618 -2.767029 2.767022
												CHANNELS 3 Xrotation Yrotation Zrotation
												End Site
												{
													OFFSET -0.100327 6.053253 1.276754
												}
											}
										}
									}
								}
								JOINT mixamorig:RightHandIndex1
								{
									OFFSET -23.048981 -0.310791 4.992554
									CHANNELS 3 Xrotation Yrotation Zrotation
									JOINT mixamorig:RightHandIndex2
									{
										OFFSET -6.227539 0.000000 0.000000
										CHANNELS 3 Xrotation Yrotation Zrotation
										JOINT mixamorig:RightHandIndex3
										{
											OFFSET -6.095047 0.000000 0.000000
											CHANNELS 3 Xrotation Yrotation Zrotation
											JOINT mixamorig:RightHandIndex4
											{
												OFFSET -5.484772 0.000000 0.000000
												CHANNELS 3 Xrotation Yrotation Zrotation
												End Site
												{
													OFFSET 1.420593 5.237305 0.797056
												}
											}
										}
									}
								}
								JOINT mixamorig:RightHandRing1
								{
									OFFSET -22.246323 0.020569 -3.963762
									CHANNELS 3 Xrotation Yrotation Zrotation
									JOINT mixamorig:RightHandRing2
									{
										OFFSET -6.322128 0.000000 0.000000
										CHANNELS 3 Xrotation Yrotation Zrotation
										JOINT mixamorig:RightHandRing3
										{
											OFFSET -5.900024 0.000000 0.000000
											CHANNELS 3 Xrotation Yrotation Zrotation
											JOINT mixamorig:RightHandRing4
											{
												OFFSET -6.518356 0.000000 0.000000
												CHANNELS 3 Xrotation Yrotation Zrotation
												End Site
												{
													OFFSET 1.636398 6.232697 0.982186
												}
											}
										}
									}
								}
								JOINT mixamorig:RightHandPinky1
								{
									OFFSET -20.411011 -0.303314 -8.561701
									CHANNELS 3 Xrotation Yrotation Zrotation
									JOINT mixamorig:RightHandPinky2
									{
										OFFSET -6.907349 0.000000 0.000000
										CHANNELS 3 Xrotation Yrotation Zrotation
										JOINT mixamorig:RightHandPinky3
										{
											OFFSET -4.623840 0.000000 0.000000
											CHANNELS 3 Xrotation Yrotation Zrotation
											JOINT mixamorig:RightHandPinky4
											{
												OFFSET -5.218353 0.000000 0.000000
												CHANNELS 3 Xrotation Yrotation Zrotation
												End Site
												{
													OFFSET 0.602097 5.118835 0.816273
												}
											}
										}
									}
								}
							}
						}
					}
				}
			}
		}
	}
	JOINT mixamorig:LeftUpLeg
	{
		OFFSET 18.168400 -13.561905 -0.039000
		CHANNELS 3 Xrotation Yrotation Zrotation
		JOINT mixamorig:LeftLeg
		{
			OFFSET 0.577358 -80.825211 -3.695000
			CHANNELS 3 Xrotation Yrotation Zrotation
			JOINT mixamorig:LeftFoot
			{
				OFFSET -0.577356 -83.370262 -6.520700
				CHANNELS 3 Xrotation Yrotation Zrotation
				JOINT mixamorig:LeftToeBase
				{
					OFFSET 0.750401 -20.798306 25.135401
					CHANNELS 3 Xrotation Yrotation Zrotation
					JOINT mixamorig:LeftToe_End
					{
						OFFSET -0.000500 0.001200 19.917799
						CHANNELS 3 Xrotation Yrotation Zrotation
						End Site
						{
							OFFSET 0.000000 19.917805 0.000000
						}
					}
				}
			}
		}
	}
	JOINT mixamorig:RightUpLeg
	{
		OFFSET -18.162500 -13.585098 -0.041000
		CHANNELS 3 Xrotation Yrotation Zrotation
		JOINT mixamorig:RightLeg
		{
			OFFSET -0.595024 -80.945297 -3.631900
			CHANNELS 3 Xrotation Yrotation Zrotation
			JOINT mixamorig:RightFoot
			{
				OFFSET 0.595024 -83.218193 -6.561200
				CHANNELS 3 Xrotation Yrotation Zrotation
				JOINT mixamorig:RightToeBase
				{
					OFFSET -0.753601 -20.807106 25.115000
					CHANNELS 3 Xrotation Yrotation Zrotation
					JOINT mixamorig:RightToe_End
					{
						OFFSET 0.000299 0.001700 19.918200
						CHANNELS 3 Xrotation Yrotation Zrotation
						End Site
						{
							OFFSET 0.000000 19.918203 0.000000
						}
					}
				}
			}
		}
	}
}
MOTION
Frames: 4
Frame Time: 0.033333
-0.107241 254.119568 0.242545 -1.012002 1.623935 0.549840 -2.805617 -0.071668 -0.231841 -5.611695 -0.102273 -0.620864 -5.611692 -0.102273 -0.620864 -27.780183 0.884572 -2.478846 -5.939957 -1.809257 2.604353 -0.000002 -0.000000 -0.000000 -0.000002 -0.000000 -0.000000 -0.000002 -0.000000 -0.000000 7.248431 6.365631 32.385178 -52.895341 -36.819887 5.857815 -23.466843 -23.506882 1.478705 -3.826432 -2.003326 0.833557 -7.057157 -4.106617 -72.543965 -5.071182 -4.491947 -69.918434 0.000003 0.000006 0.000003 -0.000001 0.000000 0.000000 -23.505072 8.724701 4.055226 -11.818402 8.158935 13.633698 0.000006 0.000011 0.000002 0.000000 0.000001 -0.000000 -0.793912 -9.944895 -73.989848 -8.742888 -2.825319 -82.562295 0.000001 0.000000 0.000000 0.000002 0.000000 -0.000000 -10.868839 6.242562 -70.785588 -0.409512 -6.819509 -77.462453 -0.000003 -0.000003 0.000002 -0.000004 -0.000000 -0.000001 -15.058358 6.363984 -69.029095 0.828505 -8.182924 -68.648667 -0.000002 0.000007 -0.000008 -0.000001 0.000002 -0.000001 2.277626 -6.651289 -36.122528 -64.303916 35.763980 7.685044 -24.527640 16.757020 0.686881 10.834963 10.092885 2.136013 -13.105742 1.845236 86.654979 -5.617185 1.089173 83.764579 -0.000007 -0.000012 0.000003 0.000003 -0.000001 -0.000000 -17.327353 6.468813 -26.575904 3.045373 -20.333159 1.155694 -0.000001 0.000005 -0.000012 -0.000002 -0.000001 -0.000002 -8.189469 4.700923 83.344345 -5.502048 0.854583 81.248877 0.000001 -0.000009 0.000003 0.000001 0.000000 -0.000001 -13.657554 -7.092606 77.657830 -0.194321 7.087321 77.421280 -0.000008 0.000010 0.000002 0.000000 -0.000001 0.000001 -17.941872 -11.668117 76.734921 1.092334 11.886561 73.232797 -0.000005 -0.000014 0.000007 0.000001 -0.000000 0.000000 -25.445805 9.065310 2.441339 43.892093 14.406185 1.462274 33.375129 1.633792 6.589381 0.000001 0.000002 0.000000 0.000002 0.000002 -0.000001 -8.540165 -7.991339 -3.015201 26.809524 -20.226272 2.059072 44.805232 0.019798 0.100274 -0.000006 -0.000002 -0.000004 -0.000001 0.000000 -0.000002 
-0.222568 253.917877 0.178086 -1.614379 1.459925 0.624005 -2.777159 -0.040618 -0.234503 -5.554514 -0.036434 -0.630186 -5.554518 -0.036433 -0.630186 -27.023333 1.106763 -2.927177 -6.248616 -2.042499 3.040309 -0.000006 0.000000 -0.000000 -0.000006 0.000000 -0.000000 -0.000006 0.000000 -0.000000 7.668644 5.634889 32.276127 -52.608258 -37.849623 6.350940 -22.788549 -21.114427 1.551397 -3.782660 -3.330102 1.180049 -7.118764 -4.131744 -72.666307 -5.031617 -4.478565 -69.651742 0.000003 0.000004 0.000006 0.000002 0.000001 0.000001 -22.854559 7.883829 3.631939 -12.284574 7.865492 13.784724 0.000006 0.000011 0.000001 0.000002 0.000001 0.000000 -0.893498 -9.992691 -74.046600 -8.711335 -2.820891 -82.360333 0.000001 0.000001 -0.000002 -0.000000 -0.000000 0.000002 -10.878847 6.256788 -70.891114 -0.389683 -6.824873 -77.434141 -0.000005 -0.000004 0.000003 -0.000001 0.000000 0.000001 -15.062309 6.349393 -68.980334 0.855760 -8.170652 -68.334123 -0.000001 0.000005 -0.000002 0.000000 0.000001 0.000002 2.438940 -6.376082 -36.267266 -64.658539 36.937796 7.912218 -24.236271 14.240411 0.946583 10.800970 11.119136 1.166211 -13.269970 1.741552 87.457232 -5.604617 1.118937 83.706509 -0.000002 -0.000012 0.000004 0.000001 -0.000000 -0.000000 -17.362360 9.182572 -25.229455 2.845146 -21.773093 0.656359 -0.000001 0.000004 -0.000011 0.000000 0.000001 0.000001 -8.536759 4.686999 84.654184 -5.473192 0.883363 80.885969 0.000001 -0.000009 0.000002 0.000001 0.000000 0.000002 -13.693323 -7.129761 78.327079 -0.174244 7.059646 77.233874 -0.000008 0.000009 0.000004 -0.000002 -0.000000 0.000001 -17.991278 -11.674551 77.450903 1.167642 11.875059 72.808560 -0.000005 -0.000013 0.000003 0.000002 0.000002 0.000001 -24.663484 9.112295 2.158283 43.838466 13.968949 1.569027 33.265548 1.601189 6.668950 -0.118289 -0.006780 -0.004980 0.000003 0.000002 0.000000 -7.818391 -7.876449 -3.056064 26.758748 -20.569280 2.046507 43.242037 0.959477 2.214757 -0.098838 0.015284 0.027157 -0.000002 -0.000000 0.000000 
-0.396190 253.925400 -0.022933 -2.497257 1.308262 0.708392 -2.653481 -0.010616 -0.242927 -5.306879 0.032273 -0.663331 -5.306883 0.032273 -0.663332 -26.079143 1.519644 -3.621108 -6.709104 -2.403600 3.766841 0.000001 -0.000000 -0.000000 0.000001 -0.000000 -0.000000 0.000001 -0.000000 -0.000000 7.505050 5.781693 32.388730 -53.330687 -39.531639 5.225728 -22.029033 -18.581355 1.680604 -3.516662 -4.820751 1.846006 -7.151972 -4.211116 -72.308098 -4.984498 -4.443659 -69.329910 0.000002 0.000007 0.000005 0.000002 0.000000 0.000003 -22.256183 7.075010 3.553062 -12.671794 7.442567 13.894024 0.000004 0.000014 0.000003 -0.000002 0.000001 0.000000 -0.921801 -10.013566 -73.528906 -8.676721 -2.787661 -82.151678 0.000001 0.000000 0.000000 -0.000000 -0.000000 0.000001 -10.914064 6.209176 -70.364588 -0.320912 -6.830351 -77.193131 -0.000003 -0.000005 0.000004 0.000003 -0.000000 0.000002 -15.077223 6.209749 -68.301516 0.935908 -8.146918 -67.614331 0.000000 0.000008 -0.000004 -0.000002 0.000001 0.000000 2.108831 -6.755887 -36.546040 -65.783628 38.252280 9.462404 -23.893166 11.844257 1.114177 10.903536 12.133706 -0.052463 -13.381946 1.670134 87.870664 -5.553256 1.208686 83.381624 -0.000007 -0.000013 0.000004 0.000000 -0.000000 0.000001 -16.602494 12.001263 -23.411906 2.656016 -23.265147 -0.656481 0.000002 0.000005 -0.000013 0.000001 0.000000 -0.000000 -8.813239 4.733619 85.431562 -5.431188 0.960603 80.200573 0.000001 -0.000008 0.000002 -0.000000 -0.000000 0.000000 -13.747736 -7.040957 78.626317 -0.131778 6.998223 76.902404 -0.000005 0.000010 -0.000001 -0.000001 -0.000002 0.000001 -18.068149 -11.623583 77.710955 1.364431 11.888319 71.968139 -0.000006 -0.000014 0.000004 0.000000 0.000000 0.000000 -23.261411 9.207087 1.565993 44.242953 12.406373 1.907564 31.268066 1.366266 5.797206 -0.463681 -0.026598 -0.019490 -0.000001 0.000000 0.000000 -6.447346 -7.754619 -3.113164 26.644962 -21.872757 2.014691 40.291542 2.593477 6.232312 -0.387476 0.059924 0.106473 -0.000000 0.000001 -0.000001 
-0.586194 253.904633 -0.234441 -3.524466 1.106333 0.791710 -2.514699 0.011319 -0.222430 -5.029064 0.091897 -0.654873 -5.029066 0.091897 -0.654873 -24.259553 2.445527 -4.994406 -7.327015 -2.898050 4.831282 -0.000000 0.000000 -0.000000 -0.000000 0.000000 -0.000000 -0.000000 0.000000 -0.000000 7.563295 5.669051 33.334629 -53.225513 -39.306325 4.220951 -21.713921 -17.293383 1.266767 -3.685948 -5.915654 3.042080 -7.206089 -4.326012 -71.799659 -4.913509 -4.387063 -68.840568 0.000005 0.000003 0.000005 -0.000000 0.000000 -0.000002 -21.812619 6.401744 3.820859 -13.032358 6.922866 13.990359 0.000004 0.000014 0.000000 0.000002 0.000002 0.000001 -0.967483 -10.019495 -72.838264 -8.615479 -2.735539 -81.776188 0.000001 0.000001 -0.000003 -0.000001 0.000000 -0.000002 -10.968859 6.157694 -69.761257 -0.201741 -6.830697 -76.689501 -0.000003 -0.000004 0.000000 -0.000000 -0.000001 -0.000002 -15.096687 6.039140 -67.512069 1.066134 -8.120210 -66.671778 -0.000005 0.000009 -0.000000 -0.000001 0.000001 0.000001 1.432254 -7.677987 -37.736744 -68.019498 40.286990 12.144468 -23.591803 6.680532 1.587200 11.182788 14.600014 -2.099473 -13.326465 1.675121 87.451242 -5.465929 1.353326 82.835592 -0.000007 -0.000011 0.000005 -0.000001 -0.000000 0.000001 -16.537117 12.055305 -22.907845 2.287539 -23.175641 -1.856151 0.000001 0.000004 -0.000013 -0.000002 -0.000001 -0.000000 -8.867781 4.880541 84.998508 -5.421067 1.077037 79.604905 -0.000001 -0.000009 -0.000000 0.000001 -0.000000 -0.000003 -13.782512 -6.791158 78.120828 -0.072497 6.909050 76.482560 -0.000009 0.000012 -0.000008 -0.000003 -0.000000 0.000004 -18.032458 -11.654712 77.042874 1.649799 11.978993 71.195952 -0.000006 -0.000013 0.000002 -0.000002 -0.000001 -0.000002 -21.648274 9.103049 1.269386 46.721878 11.882454 1.534272 28.189791 1.046989 4.013169 -1.022009 -0.058616 -0.042972 -0.000001 0.000000 -0.000000 -4.425486 -8.164057 -3.069022 27.348077 -22.970271 2.303682 38.157378 3.707828 9.328588 -0.854037 0.132072 0.234653 -0.000001 -0.000002 -0.000001 
